<svg xmlns="http://www.w3.org/2000/svg" viewBox="0 0 100 100" width="100" height="100">
  <!-- Circle background (dark mode) -->
  <circle cx="50" cy="50" r="48" fill="#20415a"/>
  <!-- Bird mark (dark mode: #ffffff) -->
  <g transform="translate(-38.85,17.5) scale(0.697)">
    <g transform="matrix(1.25,0,0,1.25,62.5,-15)">
      <g transform="translate(0,-952.36218)">
        <path fill="#ffffff" d="m 60.7828,964.36215 27.1809,0.8834 -27.1809,25.9958 z m -1.9745,1.4513 0,26.7845 -25.2681,0 c 8.6166,-8.7334 16.8796,-17.8103 25.2681,-26.7845 z m 27.7053,3.628 3.4864,1.1989 -12.5877,7.4768 z m -68.1835,2.9656 5.5226,0 12.8654,14.0705 -5.9854,6.1204 -12.4026,0 c 9e-4,-6.7347 0,-13.4597 0,-20.1909 z m -1.9746,1.2304 0,5.8364 -6.3555,0 z m 3.363,20.9796 38.627,0 -10.7675,29.43465 z m 39.0898,4.54286 0,41.20229 -12.5878,-6.8775 c 4.1972,-11.443 8.3886,-22.879 12.5878,-34.32479 z"/>
      </g>
    </g>
  </g>
</svg>
